<svg width="46" height="46" fill="none" stroke="#000000" stroke-linecap="round" stroke-linejoin="round" stroke-width="2" viewBox="0 0 24 24" xmlns="http://www.w3.org/2000/svg">
  <path d="M14.05 6A5 5 0 0 1 18 10"></path>
  <path d="M14.05 2a9 9 0 0 1 8 7.94"></path>
  <path d="M22.05 16.94v3a2 2 0 0 1-2 2h-.19a19.79 19.79 0 0 1-8.63-3.07 19.52 19.52 0 0 1-6-6 19.82 19.82 0 0 1-3.11-8.69A2 2 0 0 1 3.93 2h3.18a2 2 0 0 1 2 1.72 13 13 0 0 0 .7 2.81 2 2 0 0 1-.45 2.11L8.09 9.91a16.001 16.001 0 0 0 6 6l1.27-1.27a2 2 0 0 1 2.11-.45 13 13 0 0 0 2.81.7A2 2 0 0 1 22 16.92l.05.02Z"></path>
</svg>