<?xml version="1.0" encoding="utf-8"?>
<!-- Generator: Adobe Illustrator 24.0.1, SVG Export Plug-In . SVG Version: 6.00 Build 0)  -->
<svg version="1.1" id="Слой_1" xmlns="http://www.w3.org/2000/svg" xmlns:xlink="http://www.w3.org/1999/xlink" x="0px" y="0px"
	 viewBox="0 0 32 32" style="enable-background:new 0 0 32 32;" xml:space="preserve">
<style type="text/css">
	.st0{fill:#DAB92D;}
	.st1{fill:#FFD83A;}
	.st2{fill:none;}
	.st3{fill:#FFFFFF;}
	.st4{fill:#ECECEC;}
</style>
<title>file_type_css</title>
<polygon class="st0" points="5.9,27.2 3.7,2 28.3,2 26.1,27.2 16,30 "/>
<polygon class="st1" points="16,27.9 24.2,25.6 26.1,4.1 16,4.1 "/>
<polyline class="st2" points="378.1,350.2 379.7,327.9 317.5,327.9 "/>
<polygon class="st3" points="25,6.7 16.7,6.7 16.7,18 21.9,17 21.8,19.7 16.7,21.1 16.7,24.1 23.7,22.2 24.4,13.8 19.2,14.4 
	19.2,9.7 24.8,9.7 "/>
<g>
	<polygon class="st4" points="12.8,6.7 15.3,6.7 15.3,24 7.6,21.9 7.6,18.9 12.8,20.3 	"/>
</g>
</svg>
